<?xml version="1.0" encoding="UTF-8"?>
<svg width="20" height="20" version="1.1" viewBox="0 0 24 24" xmlns="http://www.w3.org/2000/svg">
 <path d="M0 0h24v24H0V0z" fill="none"/>
 <path transform="scale(1.2)" d="m6.666 4.166c-0.91667 0-1.6582 0.7513-1.6582 1.668l-0.0078125 11.666c0 0.91667 0.74154 1.666 1.6582 1.666h9.1758c0.91667 0 1.666-0.74935 1.666-1.666v-7.6426c0-0.44167-0.17409-0.86549-0.48242-1.1738l-4.0254-4.0254c-0.31667-0.31667-0.74193-0.49219-1.1836-0.49219h-5.1426zm5 1.25 4.584 4.584h-3.75c-0.45833 0-0.83398-0.37565-0.83398-0.83398v-3.75zm0.41602 5.8594v2.2656h2.2461l0.019531 1.6641h-2.2656v2.2461l-1.6641 0.019531v-2.2656h-2.2461l-0.019531-1.6641h2.2656v-2.2461l1.6641-0.019531z" fill="#929292" stroke-width=".83333"/>
</svg>
