<svg width="12" height="12" viewBox="0 0 12 12" fill="none" xmlns="http://www.w3.org/2000/svg">
    <g opacity="0.4" clip-path="url(#clip0)">
        <path d="M0.439338 4.93936C1.02512 4.35358 1.97487 4.35358 2.56066 4.93936C3.14644 5.52514 3.14644 6.47488 2.56066 7.06066C1.97487 7.64645 1.02512 7.64645 0.439338 7.06066C-0.146446 6.47491 -0.146446 5.52516 0.439338 4.93936Z" fill="#94979E"/>
        <path d="M4.93934 4.93936C5.52512 4.35358 6.47486 4.35358 7.06064 4.93936C7.64642 5.52514 7.64642 6.47488 7.06064 7.06066C6.47486 7.64645 5.52512 7.64645 4.93934 7.06066C4.35355 6.47491 4.35355 5.52516 4.93934 4.93936Z" fill="#94979E"/>
        <path d="M9.43934 4.93936C10.0251 4.35358 10.9749 4.35358 11.5607 4.93936C12.1464 5.52514 12.1464 6.47488 11.5607 7.06066C10.9749 7.64645 10.0251 7.64645 9.43934 7.06066C8.85355 6.47491 8.85355 5.52516 9.43934 4.93936Z" fill="#94979E"/>
    </g>
    <defs>
        <clipPath id="clip0">
            <rect width="12" height="12" fill="white" transform="translate(0 12) rotate(-90)"/>
        </clipPath>
    </defs>
</svg>
