<svg width="14" height="14" viewBox="0 0 14 14" fill="none" xmlns="http://www.w3.org/2000/svg">
  <path fill-rule="evenodd" clip-rule="evenodd" d="M6.9987 13.4173C10.5425 13.4173 13.4154 10.5445 13.4154 7.00065C13.4154 3.45682 10.5425 0.583984 6.9987 0.583984C3.45487 0.583984 0.582031 3.45682 0.582031 7.00065C0.582031 10.5445 3.45487 13.4173 6.9987 13.4173Z" stroke="#929292" stroke-width="0.8" stroke-linecap="round" stroke-linejoin="round"/>
  <path d="M6.9974 9.91699C6.91685 9.91699 6.85156 9.98228 6.85156 10.0628C6.85156 10.1434 6.91685 10.2087 6.9974 10.2087C7.07794 10.2087 7.14323 10.1434 7.14323 10.0628C7.14323 9.98228 7.07794 9.91699 6.9974 9.91699V9.91699" stroke="#929292" stroke-width="0.8" stroke-linecap="round" stroke-linejoin="round"/>
  <path d="M5.25 5.83679C5.25013 4.96279 5.89508 4.22289 6.76088 4.10347C7.62667 3.98404 8.44784 4.52171 8.68458 5.36304C8.92132 6.20436 8.50103 7.09136 7.7 7.44096C7.27484 7.62651 7.00001 8.04632 7 8.51021V8.75054" stroke="#929292" stroke-width="0.8" stroke-linecap="round" stroke-linejoin="round"/>
</svg>
