<svg width="16" height="14" viewBox="0 0 16 14" fill="none" xmlns="http://www.w3.org/2000/svg">
<path d="M1.85547 13L14.3555 1" stroke="black" stroke-linecap="round" stroke-linejoin="round"/>
<path d="M5.97559 11.7006C6.6308 11.9041 7.31353 12.005 7.99959 11.9999C10.7329 12.0459 13.5049 10.1246 15.2156 8.24192C15.5955 7.82019 15.5955 7.17966 15.2156 6.75792C14.5959 6.07806 13.9093 5.46229 13.1663 4.91992" stroke="black" stroke-linecap="round" stroke-linejoin="round"/>
<path d="M9.60855 3.1878C9.08252 3.0569 8.54192 2.99373 7.99989 2.9998C5.31255 2.95514 2.53322 4.83447 0.785885 6.75647C0.406007 7.17821 0.406007 7.81874 0.785885 8.24047C1.31717 8.82207 1.89704 9.35734 2.51922 9.84047" stroke="black" stroke-linecap="round" stroke-linejoin="round"/>
<path d="M5.5 7.5C5.49982 6.8369 5.76316 6.20092 6.23204 5.73204C6.70092 5.26316 7.3369 4.99982 8 5" stroke="black" stroke-linecap="round" stroke-linejoin="round"/>
<path d="M10.5 7.49902V7.49902C10.5002 8.16218 10.2369 8.79824 9.768 9.26722C9.29914 9.73621 8.66316 9.99969 8 9.99969" stroke="black" stroke-linecap="round" stroke-linejoin="round"/>
</svg>
