<svg width="12" height="14" viewBox="0 0 12 14" fill="none" xmlns="http://www.w3.org/2000/svg">
<g opacity="0.6">
<path fill-rule="evenodd" clip-rule="evenodd" d="M2.59167 3.89406C2.81926 3.79956 2.92588 3.54319 2.82911 3.3205C2.73324 3.09869 2.68799 2.86988 2.68799 2.64325C2.68844 1.96294 3.09746 1.3115 3.78425 1.028C3.99839 0.939627 4.2327 0.890627 4.48044 0.890627C4.99967 0.891502 5.44006 1.09581 5.76262 1.41956C6.08383 1.74331 6.27513 2.18431 6.27468 2.64194C6.27468 2.8655 6.22988 3.09344 6.13177 3.3205C6.035 3.54319 6.14162 3.79956 6.36921 3.89406C6.59724 3.98813 6.86022 3.88444 6.95654 3.66175C7.10214 3.32663 7.17068 2.98013 7.17068 2.64194C7.17023 1.94719 6.88441 1.29356 6.40639 0.811002C5.92927 0.328439 5.24921 0.0147518 4.48044 0.0156268C4.11084 0.0156268 3.75602 0.0891268 3.43481 0.222564C2.40665 0.648689 1.79154 1.62256 1.79199 2.64325C1.79199 2.98406 1.86054 3.33056 2.00434 3.66175C2.10066 3.88444 2.36364 3.98813 2.59167 3.89406Z" fill="#7D7F81"/>
<path fill-rule="evenodd" clip-rule="evenodd" d="M8.96003 7.875V7C8.96003 5.6875 7.16803 5.6875 7.16803 7V6.125C7.16803 4.8125 5.37603 4.8125 5.37603 6.125V2.625C5.37603 1.3125 3.58403 1.3125 3.58403 2.625C3.58403 6.5625 3.58403 7.10719 3.58403 11.0084L1.5425 9.002C0.70429 8.18344 -0.556382 9.42069 0.281826 10.2397L3.86896 13.7414C4.03696 13.9055 4.2753 14 4.50557 14H9.88202C10.3766 14 10.752 13.6041 10.752 13.1206C10.752 11.8541 10.752 9.1875 10.752 7.875C10.752 6.5625 8.96003 6.5625 8.96003 7.875Z" fill="#7D7F81"/>
</g>
</svg>
