<svg width="12" height="12" viewBox="0 0 12 12" fill="none" xmlns="http://www.w3.org/2000/svg">
    <g clip-path="url(#clip0)">
        <path d="M0.620772 12.0001C0.462864 12.0001 0.304805 11.9402 0.184717 11.8192C-0.056364 11.5781 -0.056364 11.1871 0.184717 10.946L10.9488 0.1819C11.1901 -0.0593314 11.5809 -0.0593314 11.822 0.1819C12.0631 0.422982 12.0631 0.813834 11.822 1.05492L1.05773 11.8192C0.936739 11.9402 0.778831 12.0001 0.620772 12.0001Z" fill="#F8FFFF"/>
        <path d="M11.3858 12C11.2279 12 11.0698 11.94 10.9497 11.819L0.184717 1.05398C-0.056364 0.812745 -0.056364 0.421892 0.184717 0.180811C0.425798 -0.0602703 0.816651 -0.0602703 1.05773 0.180811L11.822 10.9458C12.0631 11.1869 12.0631 11.5779 11.822 11.819C11.701 11.94 11.5431 12 11.3858 12Z" fill="#F8FFFF"/>
    </g>
    <defs>
        <clipPath id="clip0">
            <rect width="12" height="12" fill="white"/>
        </clipPath>
    </defs>
</svg>