<svg width="12" height="12" viewBox="0 0 12 12" fill="none" xmlns="http://www.w3.org/2000/svg">
<path d="M4.39733 7.27575L6.07047 6.02091V3.46477C6.07047 3.20775 6.27822 3 6.53523 3C6.79225 3 7 3.20775 7 3.46477V6.25331C7 6.3997 6.93121 6.53775 6.81409 6.62512L4.95508 8.0194C4.87143 8.08214 4.77381 8.11235 4.67669 8.11235C4.53494 8.11235 4.39551 8.04867 4.3044 7.92598C4.15007 7.72099 4.1919 7.42959 4.39733 7.27575Z" fill="white"/>
<path d="M6 0C9.3086 0 12 2.6914 12 6C12 9.3086 9.3086 12 6 12C2.6914 12 0 9.3086 0 6C0 2.6914 2.6914 0 6 0ZM6 11.0705C8.79551 11.0705 11.0705 8.79551 11.0705 6C11.0705 3.20449 8.79551 0.929508 6 0.929508C3.20402 0.929508 0.929508 3.20449 0.929508 6C0.929508 8.79551 3.20449 11.0705 6 11.0705Z" fill="white"/>
</svg>
