<?xml version="1.0" encoding="UTF-8" standalone="no"?>
<svg
   xmlns:dc="http://purl.org/dc/elements/1.1/"
   xmlns:cc="http://creativecommons.org/ns#"
   xmlns:rdf="http://www.w3.org/1999/02/22-rdf-syntax-ns#"
   xmlns:svg="http://www.w3.org/2000/svg"
   xmlns="http://www.w3.org/2000/svg"
   xml:space="preserve"
   style="enable-background:new 0 0 1440 1024;"
   viewBox="0 0 300 104"
   y="0px"
   x="0px"
   id="Layer_1"
   version="1.1"><metadata
   id="metadata35"><rdf:RDF><cc:Work
       rdf:about=""><dc:format>image/svg+xml</dc:format><dc:type
         rdf:resource="http://purl.org/dc/dcmitype/StillImage" /><dc:title></dc:title></cc:Work></rdf:RDF></metadata><defs
   id="defs33" />
<style
   id="style2"
   type="text/css">
	.st0{fill:#008AC2;}
	.st1{fill:#6E6F72;}
</style>
<g
   transform="matrix(0.5179558,0,0,0.5179558,-222.92818,-213.2424)"
   id="g28">
	<polygon
   style="fill:#008ac2"
   id="polygon4"
   points="466.7,527.6 501.7,492.6 430.4,456.6 430.4,544.8 466.7,560.4 "
   class="st0" />
	<polygon
   style="fill:#008ac2"
   id="polygon6"
   points="584.2,450.5 509.6,411.7 435,450.5 509.1,486.3 "
   class="st0" />
	<polygon
   style="fill:#008ac2"
   id="polygon8"
   points="472.3,531.2 472.3,612.3 506,575.5 506,495.4 "
   class="st0" />
	<path
   style="fill:#6e6f72"
   id="path10"
   d="m 567.1,483.3 c -30.8,0 -45.8,23.5 -45.8,46.9 0,23.4 14.5,45.9 45.8,45.9 31.3,0 45.4,-23 45.6,-46 0.3,-23.3 -14.9,-46.8 -45.6,-46.8 z m 0,77.4 c -21,0 -28.9,-15.6 -29.2,-30.3 -0.4,-15 8.3,-31.9 29.2,-31.9 21,0 29.4,16.8 29.1,31.8 -0.2,14.6 -8.1,30.4 -29.1,30.4 z"
   class="st1" />
	<path
   style="fill:#6e6f72"
   id="path12"
   d="m 659.8,510.7 c -7.1,0 -15.5,3.1 -20.3,10 l -1,-10 H 624 V 601 h 15.5 v -33.6 c 4.4,6.9 14.2,8.9 20.8,8.9 20.1,0 31.6,-14.5 31.6,-32.8 0,-18.4 -12.8,-32.8 -32.1,-32.8 z m -1.2,50.6 c -10.5,0 -17.8,-8 -17.8,-17.8 0,-9.8 6.6,-17.8 17.8,-17.8 11.2,0 17.8,8 17.8,17.8 0,9.8 -7.2,17.8 -17.8,17.8 z"
   class="st1" />
	<path
   style="fill:#6e6f72"
   id="path14"
   d="m 733.8,510.7 c -20.3,0 -33.3,13.6 -33.3,32.4 0,19.9 12.8,33 34.4,33 9.5,0 20.3,-3.3 26.9,-10.1 l -9.9,-9.7 c -3.6,3.6 -11.1,5.8 -16.8,5.8 -10.9,0 -17.7,-5.5 -18.7,-13.2 h 48.9 c 2.5,-25.3 -10.6,-38.2 -31.5,-38.2 z m -17.1,25.7 c 2.3,-8 9.2,-12.1 17.5,-12.1 8.9,0 15.3,4 16.3,12.1 z"
   class="st1" />
	<path
   style="fill:#6e6f72"
   id="path16"
   d="m 812.4,510.7 c -7.9,0 -14.2,3.2 -20.6,9.6 l -1,-9.6 H 777 v 65.1 h 15.4 v -32.7 c 0,-9.7 6.5,-17.9 16,-17.9 9.9,0 15.1,7.4 15.1,17.1 v 33.5 H 839 v -33.6 c 0,-20.2 -11.8,-31.5 -26.6,-31.5 z"
   class="st1" />
	<path
   style="fill:#008ac2"
   id="path18"
   d="m 1009.6,500.3 v -17 H 943 c 0,30.9 0,62 0,92.9 h 66.6 v -17.3 h -50 v -21 h 48.2 v -16.3 h -48.2 v -21.4 h 50 z"
   class="st0" />
	<polygon
   style="fill:#008ac2"
   id="polygon20"
   points="911.7,576.1 931,576.2 931,574.5 909.1,541 897.9,554.7 911.7,576.1 "
   class="st0" />
	<rect
   style="fill:#008ac2"
   id="rect22"
   height="0"
   width="0"
   class="st0"
   y="485.10001"
   x="932.40002" />
	<polygon
   style="fill:#008ac2"
   id="polygon24"
   points="912.1,483.3 900.2,501.4 901.3,503.1 902.9,505.4 909.4,515.4 931,484.5 931,483.3 914,483.3 912.1,483.3 "
   class="st0" />
	<polygon
   style="fill:#008ac2"
   id="polygon26"
   points="871.5,483.3 871.4,483.3 851.9,483.3 851.9,484.6 866.5,506.9 881,529.2 881,529.2 881.1,529.2 881,529.3 851.9,573.5 851.9,573.5 851.9,576.2 868.9,576.2 869,576.2 872.6,571 887.4,548.5 890.5,543.7 900.7,528.2 900.7,528.1 891.6,514.1 891.3,513.7 "
   class="st0" />
</g>
</svg>
