<svg width="65" height="65" viewBox="0 0 65 65" fill="none" xmlns="http://www.w3.org/2000/svg">
<circle cx="32.5" cy="32.5" r="32.5" fill="#5A69E6" fill-opacity="0.3"/>
<path fill-rule="evenodd" clip-rule="evenodd" d="M33.6082 34.8255L37.0546 31.3791L39.4271 32.0156C40.1611 32.2113 40.9437 32.0011 41.4809 31.464C42.018 30.9268 42.2282 30.1442 42.0325 29.4102L41.396 27.0377L42.4577 25.976L44.8302 26.6125C45.5643 26.8091 46.3476 26.5992 46.885 26.0618C47.4224 25.5244 47.6323 24.7412 47.4356 24.007L46.8005 21.6345C48.0465 20.3882 48.0462 18.3678 46.7998 17.1218C45.5535 15.8758 43.5331 15.8761 42.2871 17.1225L29.0961 30.3134C25.3469 28.7238 20.9969 30.0138 18.7203 33.3904C16.4438 36.767 16.8792 41.2833 19.7587 44.1629C22.6383 47.0425 27.1546 47.4778 30.5312 45.2013C33.9079 42.9248 35.1979 38.5748 33.6082 34.8255Z" stroke="#5A69E6" stroke-width="1.9" stroke-linecap="round" stroke-linejoin="round"/>
<path fill-rule="evenodd" clip-rule="evenodd" d="M24.27 41.7792C25.4449 41.7792 26.3974 40.8267 26.3974 39.6518C26.3974 38.4769 25.4449 37.5244 24.27 37.5244C23.095 37.5244 22.1426 38.4769 22.1426 39.6518C22.1426 40.8267 23.095 41.7792 24.27 41.7792Z" stroke="#5A69E6" stroke-width="1.9" stroke-linecap="round" stroke-linejoin="round"/>
</svg>
