<svg width="12" height="12" viewBox="0 0 12 12" fill="none" xmlns="http://www.w3.org/2000/svg">
<g opacity="0.5">
<path fill-rule="evenodd" clip-rule="evenodd" d="M6 12C9.31371 12 12 9.31371 12 6C12 2.68629 9.31371 0 6 0C2.68629 0 0 2.68629 0 6C0 9.31371 2.68629 12 6 12ZM8.08338 3.71714C8.2396 3.87334 8.23961 4.12661 8.08341 4.28283L6.46617 5.90025L8.08325 7.51714C8.23947 7.67334 8.23948 7.92661 8.08328 8.08283C7.92708 8.23905 7.67381 8.23906 7.5176 8.08286L5.90052 6.46596L4.28383 8.08283C4.12763 8.23905 3.87437 8.23906 3.71815 8.08286C3.56193 7.92666 3.56192 7.67339 3.71812 7.51717L5.3348 5.90031L3.71717 4.28286C3.56095 4.12666 3.56094 3.87339 3.71714 3.71717C3.87334 3.56095 4.12661 3.56094 4.28283 3.71714L5.90046 5.33459L7.5177 3.71717C7.6739 3.56095 7.92716 3.56094 8.08338 3.71714Z" fill="#D7D7D7"/>
</g>
</svg>
