<svg xmlns="http://www.w3.org/2000/svg" version="1.1" xmlns:xlink="http://www.w3.org/1999/xlink" xmlns:svgjs="http://svgjs.com/svgjs" viewBox="0 0 20 20" width="20" height="20"><title>Exported from Streamline App (https://app.streamlineicons.com)</title><g transform="matrix(0.8333333333333334,0,0,0.8333333333333334,0,0)"><path d="M15.25,10.249c-0.138,0-0.25,0.112-0.25,0.25v11.25H2v-13h3.253C5.39,8.747,5.499,8.637,5.5,8.5 c0.007-0.487,0.065-0.972,0.173-1.447c0.03-0.135-0.056-0.269-0.191-0.299C5.465,6.75,5.447,6.748,5.429,6.748H2 c-1.105,0-2,0.895-2,2v13c0,1.105,0.895,2,2,2h13c1.105,0,2-0.895,2-2V10.5c0-0.138-0.112-0.25-0.25-0.25L15.25,10.249z M19.372,0.415c-0.185-0.205-0.501-0.222-0.706-0.038C18.56,0.472,18.5,0.607,18.5,0.749V2.5c0.001,0.138-0.11,0.249-0.248,0.25 c-0.001,0-0.001,0-0.002,0h-5.37C9.637,2.751,7.007,5.377,7,8.62c-0.005,1.115,0.315,2.206,0.921,3.142 c0.149,0.233,0.458,0.301,0.69,0.152c0.101-0.064,0.175-0.162,0.21-0.276c0.548-1.715,2.139-2.881,3.939-2.889h5.49 c0.138,0,0.25,0.112,0.25,0.25c0,0,0,0.001,0,0.001v1.75c-0.001,0.276,0.223,0.5,0.499,0.501c0.142,0,0.278-0.06,0.373-0.166l4.5-5 c0.171-0.19,0.171-0.479,0-0.669L19.372,0.415z" stroke="none" fill="#929292" stroke-width="0" stroke-linecap="round" stroke-linejoin="round"></path></g></svg>