<svg width="40" height="40" viewBox="0 0 40 40" fill="none" xmlns="http://www.w3.org/2000/svg">
<path fill-rule="evenodd" clip-rule="evenodd" d="M20 38.75C30.3553 38.75 38.75 30.3553 38.75 20C38.75 9.64466 30.3553 1.25 20 1.25C9.64466 1.25 1.25 9.64466 1.25 20C1.25 30.3553 9.64466 38.75 20 38.75Z" stroke="#27E7A2" stroke-width="2" stroke-linecap="round" stroke-linejoin="round"/>
<path d="M13.75 14.375C14.0952 14.375 14.375 14.6548 14.375 15C14.375 15.3452 14.0952 15.625 13.75 15.625C13.4048 15.625 13.125 15.3452 13.125 15C13.125 14.6548 13.4048 14.375 13.75 14.375" stroke="#27E7A2" stroke-width="2" stroke-linecap="round" stroke-linejoin="round"/>
<path d="M26.25 14.375C26.5952 14.375 26.875 14.6548 26.875 15C26.875 15.3452 26.5952 15.625 26.25 15.625C25.9048 15.625 25.625 15.3452 25.625 15C25.625 14.6548 25.9048 14.375 26.25 14.375" stroke="#27E7A2" stroke-width="2" stroke-linecap="round" stroke-linejoin="round"/>
<path d="M30.08 25C28.181 28.8324 24.2737 31.2569 19.9967 31.2569C15.7196 31.2569 11.8123 28.8324 9.91333 25" stroke="#27E7A2" stroke-width="2" stroke-linecap="round" stroke-linejoin="round"/>
</svg>
