<?xml version="1.0" encoding="UTF-8"?>
<svg width="20px" height="20px" viewBox="0 0 20 20" version="1.1" xmlns="http://www.w3.org/2000/svg" xmlns:xlink="http://www.w3.org/1999/xlink">
    <!-- Generator: Sketch 57.1 (83088) - https://sketch.com -->
    <title>status/unknown@1x</title>
    <desc>Created with Sketch.</desc>
    <g id="Page-1" stroke="none" stroke-width="1" fill="none" fill-rule="evenodd">
        <g id="Export-Icons" transform="translate(-216.000000, -6.000000)">
            <g id="status/unknown" transform="translate(216.000000, 6.000000)">
                <rect id="bg-color-round" fill="#929292" x="0" y="0" width="20" height="20" rx="2"></rect>
                <g id="icon/_status/asset-question" transform="translate(1.000000, 1.248969)" fill="#FFFFFF">
                    <rect id="bg-color" fill-opacity="0" x="0" y="0" width="18" height="18"></rect>
                    <path d="M13.3831339,6.38232422 C13.3831339,6.91494407 13.3053515,7.38559366 13.1497843,7.79428711 C12.9942171,8.20298056 12.7740533,8.55761568 12.4892862,8.85820313 C12.2045192,9.15879057 11.8630675,9.42773319 11.464921,9.66503906 C11.0667745,9.90234494 10.6172184,10.1185537 10.1162394,10.3136719 L10.1162394,12.1171875 L7.33186437,12.1171875 L7.33186437,9.45146484 C7.70628031,9.35126903 8.04509528,9.24843803 8.34831945,9.14296875 C8.65154362,9.03749947 8.96926505,8.86611447 9.30149328,8.62880859 C9.61262765,8.41787004 9.85652169,8.17265765 10.0331827,7.89316406 C10.2098438,7.61367048 10.298173,7.29726739 10.298173,6.94394531 C10.298173,6.41659893 10.1281063,6.04087026 9.78796789,5.81674805 C9.44782947,5.59262583 8.9692698,5.48056641 8.35227453,5.48056641 C7.97258513,5.48056641 7.54412262,5.56230387 7.06687414,5.72578125 C6.58962566,5.88925863 6.15325307,6.10019402 5.75774328,6.35859375 L5.44133703,6.35859375 L5.44133703,3.94599609 C5.77883872,3.80361257 6.29826712,3.65463945 6.99963781,3.49907227 C7.7010085,3.34350508 8.41291545,3.26572266 9.13538,3.26572266 C10.4379256,3.26572266 11.471509,3.55312213 12.2361612,4.12792969 C13.0008135,4.70273725 13.3831339,5.45419458 13.3831339,6.38232422 Z M10.3377237,15.28125 L7.14202062,15.28125 L7.14202062,13.1929688 L10.3377237,13.1929688 L10.3377237,15.28125 Z" id="icon"></path>
                </g>
            </g>
        </g>
    </g>
</svg>