<svg width="24" height="24" version="1.1" viewBox="0 0 24 24" xmlns="http://www.w3.org/2000/svg">
 <path d="M0 0h24v24H0V0z" fill="none"/>
 <g>
  <path d="m19 13v5c0 .55-.45 1-1 1h-12c-.55 0-1-.45-1-1v-5c0-.55-.45-1-1-1s-1 .45-1 1v6c0 1.1.9 2 2 2h14c1.1 0 2-.9 2-2v-6c0-.55-.45-1-1-1s-1 .45-1 1z" fill="#929292"/>
  <path d="m10.995 6.4125-1.88 1.88c-.39.39-1.02.39-1.41 0s-.39-1.02 0-1.41l3.59-3.59c.39-.39 1.02-.39 1.41 0l3.59 3.59c.39.39.39 1.02 0 1.41s-1.02.39-1.41 0l-1.89-1.88v8.67c0 .55-.45 1-1 1s-1-.45-1-1z" style="fill:#929292"/>
 </g>
</svg>
