<svg xmlns="http://www.w3.org/2000/svg" width="300" height="67" viewBox="-217 -49 920 200">
  <path d="M-170.52,79.71l-43-57.64c-3.41-4.43-1-9.19,4.08-9.19h22.19A9.88,9.88,0,0,1-179,16.67l27.3,39.24h.34l28-39.24a9.3,9.3,0,0,1,7.85-3.79h22.52c5.68,0,7.58,4.42,4.07,8.85l-43,57.74,43.33,60.95c3,4.44,1.35,8.87-4.11,8.87h-21.47a9.29,9.29,0,0,1-7.17-4.09l-30-42.29h-.34l-30.71,43.6a6.54,6.54,0,0,1-5.46,2.72h-22.74c-5.8,0-7.17-4.43-4.1-8.87Z"/>
  <path d="M5.43,9.45C40.89,9.45,68.19,36,68.19,72.57a83.2,83.2,0,0,1-.69,9.19,6.29,6.29,0,0,1-6.16,5.8H-31.42A39.51,39.51,0,0,0,7.8,124.05c12.28,0,23.54-5.44,30.32-9.88,4.1-2.41,6.49-3.79,9.22-.36l9.47,13c2.39,2.73,3.41,5.46-.66,8.89-9.89,8.51-27.63,17.06-50.47,17.06-41.27,0-68.56-32.39-68.56-71.62C-62.78,42.54-35.49,9.45,5.43,9.45Zm31,56.63c-1-16.37-14.67-30.32-31.39-30.32a34.51,34.51,0,0,0-34.8,30.32Z"/>
  <path d="M101.24,19.34a6.7,6.7,0,0,1,6.48-6.46h9.9a5.5,5.5,0,0,1,5.44,4l4.11,11.62c2.39-2.73,20.45-19.13,47.74-19.13,41.61,0,56.87,29.34,56.87,64.82v68.54a6.69,6.69,0,0,1-6.47,6.48H205.94a6.48,6.48,0,0,1-6.48-6.48h0V72.89c0-21.82-10.56-33.76-28.32-33.76-21.47,0-36.12,15.7-37.91,20.47v83.21c0,4.45-2,6.48-7.84,6.48H107.67a6.72,6.72,0,0,1-6.49-6.48V19.34Z"/>
  <path d="M392.18,19.34a6.67,6.67,0,0,1,6.48-6.46h9.88a6.43,6.43,0,0,1,5.8,4.76l3.79,11.6a48.62,48.62,0,0,1,39.8-19.79c13,0,28.66,3.43,24.91,12.62l-8.19,16.72a5.8,5.8,0,0,1-7.47,3.39,6.29,6.29,0,0,1-.7-.32,31.65,31.65,0,0,0-11.6-2.39,36,36,0,0,0-30.71,16.7v86.64c0,5.8-3.79,6.48-9.19,6.48H398.61a6.7,6.7,0,0,1-6.49-6.48V19.34Z"/>
  <path d="M667.37-40.78a6.7,6.7,0,0,1,6.48-6.46h19.43a6.71,6.71,0,0,1,6.54,6.46V142.81a6.73,6.73,0,0,1-6.5,6.48H673.85a6.71,6.71,0,0,1-6.48-6.48Z"/>
  <path d="M354.12,9.45H324.53V-40.78a6.7,6.7,0,0,0-6.5-6.46H298.64a6.71,6.71,0,0,0-6.5,6.46V9.45H262.59a6.74,6.74,0,0,0-6.46,6.5V31a6.7,6.7,0,0,0,6.46,6.48h29.55V142.81a6.73,6.73,0,0,0,6.5,6.48h19.43a6.72,6.72,0,0,0,6.5-6.48V37.46h29.55A6.71,6.71,0,0,0,360.59,31V16A6.74,6.74,0,0,0,354.12,9.45Z"/>
  <path d="M616.59,12.82H600.73a6.73,6.73,0,0,0-6.48,6.49v2.38A66.4,66.4,0,0,0,556,9.47c-38.19,0-68.9,32.73-68.9,71.27,0,39.23,30.71,72,68.9,72a66.17,66.17,0,0,0,38.29-12.26v2.37a6.72,6.72,0,0,0,6.48,6.48h15.86a6.72,6.72,0,0,0,6.5-6.48V19.31A6.75,6.75,0,0,0,616.59,12.82ZM555.94,123.36c-21.49,0-38.53-19.08-38.53-42.62,0-22.75,17.06-41.61,38.53-41.61,20,0,36.17,16.3,38.29,37v9.34C592.14,106.78,576,123.36,556,123.36Z"/>
</svg>
