<svg version="1.2" width="5.56mm" height="5.56mm" viewBox="0 0 556 556" preserveAspectRatio="xMidYMid" fill-rule="evenodd" stroke-width="28.222" stroke-linejoin="round" xmlns="http://www.w3.org/2000/svg" xml:space="preserve"><defs class="ClipPathGroup"><clipPath id="a" clipPathUnits="userSpaceOnUse"><path d="M0 0h556v556H0z"/></clipPath></defs><g class="SlideGroup"><g class="Slide" clip-path="url(#a)"><g class="Page"><g class="com.sun.star.drawing.PolyPolygonShape"><path class="BoundingBox" fill="none" d="M57 57h443v443H57z"/><path fill="#929292" d="M246 299h22l-32-69 29-62h-21l-22 46-21-46h-22l31 62-34 69h22l24-52 24 52Zm112 0h18V168h-27l-18 77-4 21-4-18-1-7-17-73h-28v131h18V191l7 35 18 73h14l17-73 8-35-1 23v85Zm33 0h73v-21h-52V168h-21v131Zm63-241h5l4 1 4 1 4 1 4 2 4 2 3 3 3 3 3 3 3 3 2 4 2 4 1 4 1 4 1 4v274l-1 4-1 4-1 4-2 4-2 4-3 3-3 3-3 3-3 3-4 2-4 2-4 1-4 1-4 1H185l-4-1-4-1-4-1-4-2-4-2-3-3-3-3-3-3-3-3-2-4-2-4-1-4-1-4-1-4V97l1-4 1-4 1-4 2-4 2-4 3-3 3-3 3-3 3-3 4-2 4-2 4-1 4-1 4-1h269ZM71 147l11-1h2l2 1h2l2 1 2 2 2 1 1 1 2 2 1 1 1 2 1 2 1 2v2l1 2v272l1 2 1 2v2l2 1 1 2 1 2 2 1 2 1 1 2h2l2 1 2 1h272l2 1h2l2 1 2 1 2 1 1 1 2 2 1 1 1 2 2 2 1 2v2l1 2v9l-1 2v2l-1 2-2 1-1 2-1 2-2 1-1 1-2 1-2 1-2 1-2 1H97l-4-1-4-1-4-1-4-2-4-2-3-3-3-3-3-3-3-3-2-4-2-4-1-4-1-4-1-4V163l1-2 1-2 1-2 1-2 1-1 1-2 2-1 2-1 1-2 2-1Z"/></g></g></g></g></svg>