<svg width="14" height="14" viewBox="0 0 14 14" fill="none" xmlns="http://www.w3.org/2000/svg">
    <path d="M9.15651 4.84L6.36051 7.636C6.20049 7.79556 5.94153 7.79556 5.78151 7.636L4.84401 6.7" stroke="#94979E" stroke-linecap="round" stroke-linejoin="round"/>
    <path fill-rule="evenodd" clip-rule="evenodd" d="M12.1855 9.69499L9.6895 12.1915C9.40806 12.4728 9.02639 12.6307 8.6285 12.6305H2.875C2.04657 12.6305 1.375 11.9589 1.375 11.1305V2.88049C1.375 2.05207 2.04657 1.38049 2.875 1.38049H11.125C11.9534 1.38049 12.625 2.05207 12.625 2.88049V8.63449C12.6249 9.03229 12.4668 9.41375 12.1855 9.69499V9.69499Z" stroke="#94979E" stroke-linecap="round" stroke-linejoin="round"/>
    <path d="M8.875 12.61V10.3805C8.875 9.55207 9.54657 8.88049 10.375 8.88049H12.6045" stroke="#94979E" stroke-linecap="round" stroke-linejoin="round"/>
</svg>