<svg width="14" height="12" viewBox="0 0 14 10" fill="none" xmlns="http://www.w3.org/2000/svg">
<path d="M2.625 4.03125L5.25 0.96875" stroke="white" stroke-linecap="round" stroke-linejoin="round"/>
<path d="M11.375 4.03125L8.75 0.96875" stroke="white" stroke-linecap="round" stroke-linejoin="round"/>
<path fill-rule="evenodd" clip-rule="evenodd" d="M11.0455 11.0312H2.95353C2.56348 11.0242 2.2295 10.7498 2.14678 10.3686L0.899611 5.11858C0.831972 4.86388 0.884041 4.59223 1.04107 4.38059C1.1981 4.16894 1.44298 4.04036 1.70636 4.03125H12.2927C12.5561 4.04036 12.801 4.16894 12.958 4.38059C13.115 4.59223 13.1671 4.86388 13.0994 5.11858L11.8523 10.3686C11.7696 10.7498 11.4356 11.0242 11.0455 11.0312Z" stroke="white" stroke-linecap="round" stroke-linejoin="round"/>
<path d="M4.375 5.78125V9.28125" stroke="white" stroke-linecap="round" stroke-linejoin="round"/>
<path d="M7 5.78125V9.28125" stroke="white" stroke-linecap="round" stroke-linejoin="round"/>
<path d="M9.625 5.78125V9.28125" stroke="white" stroke-linecap="round" stroke-linejoin="round"/>
</svg>