<svg width="16" height="16" viewBox="0 0 16 16" fill="none" xmlns="http://www.w3.org/2000/svg">
    <path fill-rule="evenodd" clip-rule="evenodd" d="M7.0953 2.04828C7.32635 2.30475 7.65535 2.45119 8.00055 2.45119C8.34576 2.45119 8.67476 2.30475 8.90581 2.04828L9.49478 1.40202C9.84067 1.01922 10.39 0.895454 10.8666 1.09296C11.3433 1.29046 11.6441 1.76649 11.6178 2.28175L11.5736 3.15339C11.5563 3.49723 11.6853 3.83235 11.9285 4.07597C12.1718 4.31959 12.5067 4.44898 12.8506 4.4322L13.7222 4.38799C14.2371 4.36261 14.7124 4.66371 14.9094 5.14013C15.1064 5.61655 14.9825 6.16537 14.6001 6.51105L13.9513 7.09629C13.6952 7.32765 13.549 7.65668 13.549 8.00185C13.549 8.34702 13.6952 8.67605 13.9513 8.90742L14.6001 9.49266C14.9829 9.83855 15.1066 10.3879 14.9091 10.8645C14.7116 11.3411 14.2356 11.6419 13.7203 11.6157L12.8487 11.5715C12.5041 11.5538 12.1681 11.6829 11.9241 11.9269C11.6801 12.171 11.5509 12.5069 11.5687 12.8516L11.6129 13.7232C11.6357 14.2357 11.3353 14.7078 10.8614 14.9042C10.3874 15.1006 9.84122 14.9795 9.49478 14.6011L8.90892 13.9529C8.67767 13.6968 8.34874 13.5506 8.00367 13.5506C7.65859 13.5506 7.32967 13.6968 7.09841 13.9529L6.51006 14.6011C6.16414 14.9813 5.61697 15.1038 5.14193 14.9074C4.66689 14.7111 4.36596 14.2379 4.3895 13.7244L4.43433 12.8528C4.45205 12.5082 4.32289 12.1722 4.07889 11.9282C3.83488 11.6842 3.49889 11.555 3.15427 11.5727L2.28263 11.617C1.76758 11.6438 1.29134 11.3437 1.0934 10.8674C0.895463 10.3912 1.01866 9.84187 1.40104 9.49577L2.04916 8.91053C2.30531 8.67916 2.45149 8.35014 2.45149 8.00496C2.45149 7.65979 2.30531 7.33077 2.04916 7.0994L1.40104 6.51105C1.01994 6.16535 0.896929 5.61759 1.09362 5.14214C1.2903 4.66669 1.76433 4.36592 2.27828 4.39048L3.14991 4.43469C3.4952 4.45284 3.83195 4.32351 4.07633 4.0789C4.3207 3.83429 4.4497 3.49741 4.43121 3.15214L4.3895 2.27988C4.3654 1.76616 4.66613 1.29252 5.14131 1.09581C5.61649 0.899095 6.164 1.02158 6.51006 1.40202L7.0953 2.04828Z" stroke="#94979E" stroke-linecap="round" stroke-linejoin="round"/>
    <path fill-rule="evenodd" clip-rule="evenodd" d="M7.99895 10.804C9.54627 10.804 10.8006 9.54969 10.8006 8.00236C10.8006 6.45504 9.54627 5.20068 7.99895 5.20068C6.45162 5.20068 5.19727 6.45504 5.19727 8.00236C5.19727 9.54969 6.45162 10.804 7.99895 10.804Z" stroke="#94979E" stroke-linecap="round" stroke-linejoin="round"/>
</svg>