<svg width="16" height="16" viewBox="0 0 16 16" fill="none" xmlns="http://www.w3.org/2000/svg">
<path fill-rule="evenodd" clip-rule="evenodd" d="M8.06267 11.2331H4.76674C4.5067 11.2331 4.2959 11.4439 4.2959 11.7039V14.529C4.2959 14.7891 4.5067 14.9999 4.76674 14.9999H7.59182C7.85186 14.9999 8.06267 14.7891 8.06267 14.529V11.2331Z" stroke="white" stroke-linecap="round" stroke-linejoin="round"/>
<path fill-rule="evenodd" clip-rule="evenodd" d="M11.3584 11.2331H8.0625V14.529C8.0625 14.7891 8.27331 14.9999 8.53335 14.9999H11.3584C11.6185 14.9999 11.8293 14.7891 11.8293 14.529V11.7039C11.8293 11.4439 11.6185 11.2331 11.3584 11.2331Z" stroke="white" stroke-linecap="round" stroke-linejoin="round"/>
<path fill-rule="evenodd" clip-rule="evenodd" d="M9.47512 7.46631H6.65005C6.39 7.46631 6.1792 7.67711 6.1792 7.93716V11.2331H9.94597V7.93716C9.94597 7.67711 9.73517 7.46631 9.47512 7.46631Z" stroke="white" stroke-linecap="round" stroke-linejoin="round"/>
<path d="M15.1254 15V5.2064C15.1255 4.85853 14.9339 4.53892 14.6269 4.37519L8.50592 1.11066C8.22908 0.963114 7.89694 0.963114 7.6201 1.11066L1.4991 4.37519C1.19193 4.53876 1 4.85839 1 5.2064V15" stroke="white" stroke-linecap="round" stroke-linejoin="round"/>
</svg>