<svg width="16" height="16" viewBox="0 0 16 16" fill="none" xmlns="http://www.w3.org/2000/svg">
<path fill-rule="evenodd" clip-rule="evenodd" d="M7.06764 8.32357C7.06833 8.65942 6.79677 8.93232 6.46087 8.93335H1.60677C1.4454 8.93302 1.29079 8.86857 1.17698 8.7542C1.06318 8.63983 0.999507 8.48491 1 8.32357V1.60981C0.999672 1.44841 1.06348 1.2935 1.17739 1.17915C1.29129 1.06479 1.44597 1.00036 1.60739 1.00003L6.4615 1.00812C6.79715 1.00949 7.06833 1.2823 7.06764 1.6179V8.32357Z" stroke="white" stroke-linecap="round" stroke-linejoin="round"/>
<path fill-rule="evenodd" clip-rule="evenodd" d="M14.9998 4.60143C14.9974 4.93418 14.7258 5.20208 14.393 5.20001H9.53889C9.37902 5.20117 9.22524 5.13873 9.11143 5.02646C8.99762 4.91419 8.93312 4.76128 8.93213 4.60143V1.60668C8.93419 1.27428 9.20519 1.00638 9.53765 1.00811L14.3918 1.00002C14.7249 0.997601 14.997 1.2655 14.9998 1.59859V4.60143Z" stroke="white" stroke-linecap="round" stroke-linejoin="round"/>
<path fill-rule="evenodd" clip-rule="evenodd" d="M7.06763 14.3995C7.06665 14.5598 7.00203 14.7131 6.88801 14.8257C6.77399 14.9383 6.61989 15.001 6.45963 15L1.60552 14.9919C1.27272 14.9933 1.00171 14.7248 1 14.3921V11.3998C1.00082 11.2398 1.06523 11.0867 1.17904 10.9742C1.29285 10.8617 1.44672 10.799 1.60676 10.8H6.46087C6.79402 10.7983 7.06558 11.0667 7.06763 11.3998V14.3995Z" stroke="white" stroke-linecap="round" stroke-linejoin="round"/>
<path fill-rule="evenodd" clip-rule="evenodd" d="M9.53952 15C9.37799 14.9996 9.22322 14.9351 9.10929 14.8206C8.99537 14.7061 8.93164 14.5511 8.93213 14.3896V7.67705C8.93164 7.51566 8.99528 7.36068 9.10907 7.2462C9.22286 7.13173 9.37748 7.06714 9.5389 7.06665H14.393C14.5544 7.06714 14.709 7.13173 14.8228 7.2462C14.9366 7.36068 15.0003 7.51566 14.9998 7.67705V14.3815C15.0005 14.7172 14.7294 14.9902 14.3936 14.9919L9.53952 15Z" stroke="white" stroke-linecap="round" stroke-linejoin="round"/>
</svg>