<svg width="16" height="14" viewBox="0 0 16 13" fill="none" xmlns="http://www.w3.org/2000/svg">
<path fill-rule="evenodd" clip-rule="evenodd" d="M14.3639 4.05593L8.40806 0.975345C8.14898 0.841552 7.84114 0.841552 7.58206 0.975345L1.62739 4.05593C1.5078 4.11739 1.43262 4.24055 1.43262 4.37501C1.43262 4.50947 1.5078 4.63264 1.62739 4.6941L7.58264 7.77468C7.84172 7.90847 8.14956 7.90847 8.40864 7.77468L14.3639 4.6941C14.4831 4.63235 14.558 4.50928 14.558 4.37501C14.558 4.24074 14.4831 4.11767 14.3639 4.05593Z" stroke="white" stroke-linecap="round" stroke-linejoin="round"/>
<path d="M1.44189 7.4375L7.58264 10.3997C7.84172 10.5335 8.14956 10.5335 8.40864 10.3997L14.5669 7.4375" stroke="white" stroke-linecap="round" stroke-linejoin="round"/>
<path d="M1.44189 10.0625L7.58264 13.0247C7.84172 13.1585 8.14956 13.1585 8.40864 13.0247L14.5669 10.0625" stroke="white" stroke-linecap="round" stroke-linejoin="round"/>
</svg>