<svg width="15" height="15" viewBox="0 0 15 15" fill="none" xmlns="http://www.w3.org/2000/svg">
<path fill-rule="evenodd" clip-rule="evenodd" d="M11.062 14.125C11.5453 14.125 11.937 13.7332 11.937 13.25C11.937 12.7668 11.5453 12.375 11.062 12.375C10.5788 12.375 10.187 12.7668 10.187 13.25C10.187 13.7332 10.5788 14.125 11.062 14.125Z" stroke="white" stroke-linecap="round" stroke-linejoin="round"/>
<path fill-rule="evenodd" clip-rule="evenodd" d="M2.74951 14.125C3.23276 14.125 3.62451 13.7332 3.62451 13.25C3.62451 12.7668 3.23276 12.375 2.74951 12.375C2.26626 12.375 1.87451 12.7668 1.87451 13.25C1.87451 13.7332 2.26626 14.125 2.74951 14.125Z" stroke="white" stroke-linecap="round" stroke-linejoin="round"/>
<path d="M0.999512 11.0625H10.2938C10.7332 11.0624 11.1043 10.7364 11.1612 10.3007L12.2748 1.76183C12.3316 1.32589 12.7031 0.999825 13.1428 1H14.1245" stroke="white" stroke-linecap="round" stroke-linejoin="round"/>
<path fill-rule="evenodd" clip-rule="evenodd" d="M2.31201 4.25C2.31201 3.42157 2.98358 2.75 3.81201 2.75H7.81201C8.64044 2.75 9.31201 3.42157 9.31201 4.25V7.8125C9.31201 8.64093 8.64044 9.3125 7.81201 9.3125H3.81201C2.98358 9.3125 2.31201 8.64093 2.31201 7.8125V4.25Z" stroke="white" stroke-linecap="round" stroke-linejoin="round"/>
<path fill-rule="evenodd" clip-rule="evenodd" d="M6.68701 5.375H4.93701V2.75H6.68701V5.375Z" stroke="white" stroke-linecap="round" stroke-linejoin="round"/>
</svg>