<svg width="115" height="26" viewBox="0 0 115 26" fill="none" xmlns="http://www.w3.org/2000/svg">
	<path d="M40.3172 14.9011L36.7697 9.79331C36.488 9.40028 36.6852 8.97869 37.1061 8.97869H38.9386C39.0678 8.97328 39.1963 9.00092 39.3136 9.05933C39.4308 9.11774 39.5335 9.20524 39.613 9.31462L41.8664 12.7914H41.8946L44.2027 9.31462C44.2769 9.20602 44.3747 9.1186 44.4877 9.06003C44.6006 9.00147 44.7253 8.97354 44.8506 8.97869H46.7097C47.1791 8.97869 47.3356 9.37005 47.0461 9.76308L43.4986 14.8792L47.0758 20.2809C47.3278 20.6739 47.1869 21.067 46.7363 21.067H44.9633C44.8453 21.0597 44.7304 21.0231 44.6278 20.9601C44.5252 20.8972 44.4375 20.8096 44.3718 20.7042L41.8946 16.9569H41.8664L39.3313 20.8201C39.2802 20.8967 39.2124 20.9588 39.1339 21.0009C39.0554 21.043 38.9685 21.064 38.8807 21.0619H37.0028C36.524 21.0619 36.4113 20.6689 36.6648 20.2759L40.3172 14.9011Z" fill="white"/>
	<path d="M55.264 8.97803C58.3425 8.97803 60.7118 11.217 60.7118 14.3036C60.7068 14.563 60.687 14.822 60.6526 15.0793C60.642 15.2109 60.5813 15.3339 60.4825 15.4244C60.3836 15.5148 60.2536 15.5663 60.1178 15.5687H52.0653C52.1311 16.4037 52.5178 17.184 53.1486 17.7545C53.7794 18.325 54.608 18.6437 55.4696 18.6473C56.5358 18.6473 57.5132 18.1883 58.1023 17.814C58.4577 17.6109 58.665 17.4942 58.9019 17.7837L59.7246 18.8776C59.9319 19.1079 60.0208 19.3382 59.667 19.6276C58.8081 20.3457 57.268 21.067 55.2853 21.067C51.7033 21.067 49.334 18.3338 49.334 15.0233C49.3422 11.7704 51.7116 8.97803 55.264 8.97803ZM57.9558 13.7567C57.867 12.3749 56.6823 11.1978 55.231 11.1978C54.4913 11.1866 53.7735 11.4418 53.2158 11.9142C52.658 12.3866 52.2998 13.0429 52.2101 13.7567H57.9558Z" fill="white"/>
	<path d="M63.5616 9.83638C63.5666 9.68952 63.6277 9.55004 63.7326 9.44629C63.8375 9.34253 63.9783 9.28229 64.1264 9.27779H64.9884C65.0953 9.27509 65.2001 9.30798 65.286 9.37122C65.3719 9.43445 65.4339 9.52439 65.4623 9.6267L65.8206 10.6308C66.0287 10.395 67.6025 8.97803 69.9804 8.97803C73.6051 8.97803 74.9345 11.5138 74.9345 14.5802V20.5035C74.9299 20.6504 74.8692 20.79 74.7646 20.8941C74.66 20.9981 74.5194 21.0588 74.3713 21.0637H72.6837C72.5339 21.0637 72.3902 21.0047 72.2843 20.8996C72.1784 20.7946 72.1189 20.6521 72.1189 20.5035V14.4639C72.1189 12.5785 71.1991 11.5465 69.6518 11.5465C67.7808 11.5465 66.5043 12.9028 66.3491 13.3156V20.5068C66.3491 20.8917 66.1724 21.067 65.6654 21.067H64.1214C63.9732 21.0621 63.8324 21.0015 63.7275 20.8975C63.6227 20.7934 63.5616 20.6538 63.5566 20.5068V9.83638H63.5616Z" fill="white"/>
	<path d="M88.4502 9.83368C88.4547 9.68666 88.5147 9.54693 88.618 9.44307C88.7212 9.33921 88.8599 9.27908 89.0057 9.27497H89.852C89.9671 9.28237 90.077 9.32605 90.1661 9.39984C90.2553 9.47362 90.3193 9.5738 90.349 9.68622L90.6738 10.689C91.0666 10.1508 91.581 9.71491 92.1742 9.41742C92.7674 9.11993 93.4224 8.96943 94.0849 8.97841C95.1959 8.97841 96.5408 9.27497 96.2192 10.0696L95.5175 11.5147C95.4926 11.5816 95.4538 11.6423 95.4037 11.6928C95.3536 11.7433 95.2934 11.7825 95.2271 11.8076C95.1608 11.8327 95.09 11.8433 95.0193 11.8386C94.9487 11.8338 94.8798 11.8139 94.8174 11.7802C94.502 11.6484 94.1647 11.5783 93.8233 11.5737C93.2993 11.5692 92.7828 11.6993 92.3224 11.9519C91.8621 12.2044 91.473 12.571 91.192 13.0172V20.5066C91.192 21.008 90.8671 21.067 90.4042 21.067H89.0008C88.8549 21.0625 88.7162 21.002 88.613 20.8979C88.5098 20.7937 88.4498 20.6538 88.4453 20.5066V9.83368H88.4502Z" fill="white"/>
	<path d="M111.912 4.56127C111.917 4.4137 111.979 4.27355 112.084 4.1693C112.19 4.06505 112.331 4.00452 112.48 4H114.183C114.333 4.00367 114.476 4.06379 114.582 4.16808C114.689 4.27238 114.751 4.413 114.757 4.56127V20.5038C114.751 20.6517 114.689 20.7921 114.584 20.8965C114.478 21.001 114.336 21.0619 114.187 21.0668H112.48C112.331 21.0618 112.19 21.0009 112.084 20.8964C111.979 20.7919 111.917 20.6516 111.912 20.5038V4.56127Z" fill="white"/>
	<path d="M85.0766 8.92301H82.6586V4.56127C82.6536 4.41355 82.5959 4.2734 82.4973 4.16919C82.3986 4.06497 82.2664 4.0045 82.1273 4H80.5427C80.4037 4.0045 80.2715 4.06497 80.1728 4.16919C80.0742 4.2734 80.0165 4.41355 80.0114 4.56127V8.92301H77.5966C77.4577 8.92875 77.326 8.99017 77.228 9.09492C77.13 9.19966 77.073 9.33995 77.0684 9.48757V10.7928C77.073 10.9402 77.1301 11.0804 77.2281 11.1848C77.3261 11.2893 77.4578 11.3504 77.5966 11.3557H80.0114V20.5038C80.0165 20.6517 80.0741 20.7921 80.1727 20.8965C80.2713 21.001 80.4035 21.0619 80.5427 21.0668H82.1304C82.2696 21.0619 82.4019 21.001 82.5005 20.8965C82.5991 20.7921 82.6567 20.6517 82.6617 20.5038V11.3557H85.0766C85.2148 11.3496 85.3457 11.2881 85.4431 11.1837C85.5405 11.0793 85.5971 10.9397 85.6017 10.7928V9.48757C85.5972 9.34049 85.5406 9.20066 85.4432 9.096C85.3459 8.99134 85.2149 8.92956 85.0766 8.92301Z" fill="white"/>
	<path d="M107.779 9.26106H106.369C106.218 9.26622 106.075 9.3255 105.968 9.42696C105.861 9.52842 105.798 9.66455 105.793 9.80794V10.0094C104.798 9.33989 103.61 8.97955 102.39 8.97803C98.9963 8.97803 96.2676 11.7396 96.2676 14.9905C96.2676 18.3006 98.9963 21.067 102.39 21.067C103.61 21.0656 104.799 20.704 105.793 20.0324V20.2323C105.798 20.3757 105.861 20.5118 105.968 20.6132C106.075 20.7147 106.218 20.774 106.369 20.7791H107.779C107.93 20.7744 108.074 20.7153 108.181 20.6138C108.288 20.5123 108.351 20.3759 108.357 20.2323V9.80794C108.351 9.6644 108.288 9.52827 108.181 9.42685C108.074 9.32542 107.93 9.2662 107.779 9.26106ZM102.389 18.5868C100.479 18.5868 98.9643 16.9766 98.9643 14.9905C98.9643 13.0716 100.48 11.4726 102.389 11.4726C104.167 11.4726 105.603 12.8478 105.791 14.594V15.3823C105.606 17.1876 104.169 18.5868 102.39 18.5868H102.389Z" fill="white"/>
</svg>
