<svg width="32" height="32" viewBox="0 0 32 32" fill="none" xmlns="http://www.w3.org/2000/svg">
<path d="M20.5 23C20.7761 23 21 23.2239 21 23.5C21 23.7761 20.7761 24 20.5 24C20.2239 24 20 23.7761 20 23.5C20 23.2239 20.2239 23 20.5 23" stroke="#2CE5A2" stroke-width="1.5" stroke-linecap="round" stroke-linejoin="round"/>
<path d="M25.5 23C25.7761 23 26 23.2239 26 23.5C26 23.7761 25.7761 24 25.5 24C25.2239 24 25 23.7761 25 23.5C25 23.2239 25.2239 23 25.5 23" stroke="#2CE5A2" stroke-width="1.5" stroke-linecap="round" stroke-linejoin="round"/>
<path d="M20.5 27C20.7761 27 21 27.2239 21 27.5C21 27.7761 20.7761 28 20.5 28C20.2239 28 20 27.7761 20 27.5C20 27.2239 20.2239 27 20.5 27" stroke="#2CE5A2" stroke-width="1.5" stroke-linecap="round" stroke-linejoin="round"/>
<path d="M25.5 27C25.7761 27 26 27.2239 26 27.5C26 27.7761 25.7761 28 25.5 28C25.2239 28 25 27.7761 25 27.5C25 27.2239 25.2239 27 25.5 27" stroke="#2CE5A2" stroke-width="1.5" stroke-linecap="round" stroke-linejoin="round"/>
<path fill-rule="evenodd" clip-rule="evenodd" d="M27.0001 18.3333C27.0001 18.804 26.7148 19 26.4281 19H19.5721C19.2855 19 19.0015 18.7813 19.0015 18.3093V15.6667C19.0015 15.1947 19.2868 15 19.5735 15H26.4295C26.7161 15 27.0015 15.1947 27.0015 15.6667L27.0001 18.3333Z" stroke="#2CE5A2" stroke-width="1.5" stroke-linecap="round" stroke-linejoin="round"/>
<path fill-rule="evenodd" clip-rule="evenodd" d="M15 12.16C15 11.5193 15.5193 11 16.16 11H29.84C30.4807 11 31 11.5193 31 12.16V29.84C31 30.4807 30.4807 31 29.84 31H16.16C15.5193 31 15 30.4807 15 29.84V12.16Z" stroke="#2CE5A2" stroke-width="1.5" stroke-linecap="round" stroke-linejoin="round"/>
<path d="M5.5 5C5.77614 5 6 5.22386 6 5.5C6 5.77614 5.77614 6 5.5 6C5.22386 6 5 5.77614 5 5.5C5 5.22386 5.22386 5 5.5 5" stroke="#2CE5A2" stroke-width="1.5" stroke-linecap="round" stroke-linejoin="round"/>
<path d="M11 17H3C1.89543 17 1 16.1046 1 15V3C1 1.89543 1.89543 1 3 1H25C26.1046 1 27 1.89543 27 3V7" stroke="#2CE5A2" stroke-width="1.5" stroke-linecap="round" stroke-linejoin="round"/>
<path d="M10.5397 11.0081C9.81349 9.75012 9.82633 8.19733 10.5732 6.95152C11.3201 5.70572 12.6837 4.96272 14.1354 5.01047C15.5872 5.05823 16.8989 5.88924 17.5623 7.18143" stroke="#2CE5A2" stroke-width="1.5" stroke-linecap="round" stroke-linejoin="round"/>
</svg>
