<svg width="30" height="30" viewBox="0 0 30 30" fill="none" xmlns="http://www.w3.org/2000/svg">
<path d="M5.625 9.84375C5.88388 9.84375 6.09375 10.0536 6.09375 10.3125C6.09375 10.5714 5.88388 10.7812 5.625 10.7812C5.36612 10.7812 5.15625 10.5714 5.15625 10.3125C5.15625 10.0536 5.36612 9.84375 5.625 9.84375" stroke="#E56ECA" stroke-width="1.5" stroke-linecap="round" stroke-linejoin="round"/>
<path d="M24.375 19.2188C24.6339 19.2188 24.8438 19.4286 24.8438 19.6875C24.8438 19.9464 24.6339 20.1562 24.375 20.1562C24.1161 20.1562 23.9062 19.9464 23.9062 19.6875C23.9062 19.4286 24.1161 19.2188 24.375 19.2188" stroke="#E56ECA" stroke-width="1.5" stroke-linecap="round" stroke-linejoin="round"/>
<path fill-rule="evenodd" clip-rule="evenodd" d="M0.9375 7.125C0.9375 6.29657 1.60907 5.625 2.4375 5.625H27.5625C28.3909 5.625 29.0625 6.29657 29.0625 7.125V22.875C29.0625 23.7034 28.3909 24.375 27.5625 24.375H2.4375C1.60907 24.375 0.9375 23.7034 0.9375 22.875V7.125Z" stroke="#E56ECA" stroke-width="1.5" stroke-linecap="round" stroke-linejoin="round"/>
<path fill-rule="evenodd" clip-rule="evenodd" d="M15 18.75C17.0711 18.75 18.75 17.0711 18.75 15C18.75 12.9289 17.0711 11.25 15 11.25C12.9289 11.25 11.25 12.9289 11.25 15C11.25 17.0711 12.9289 18.75 15 18.75Z" stroke="#E56ECA" stroke-width="1.5" stroke-linecap="round" stroke-linejoin="round"/>
</svg>
