<svg width="30" height="30" viewBox="0 0 30 30" fill="none" xmlns="http://www.w3.org/2000/svg">
<path d="M17.02 12.0825C16.1728 12.1525 15.2968 12.1887 14.4004 12.1887C6.94479 12.1887 0.900391 9.66997 0.900391 6.56372C0.900391 3.45747 6.94479 0.938721 14.4004 0.938721C21.856 0.938721 27.9004 3.45622 27.9004 6.56372C27.9004 8.24372 26.1328 9.75122 23.3308 10.7825" stroke="#2CE5A2" stroke-width="1.5" stroke-linecap="round" stroke-linejoin="round"/>
<path d="M27.9004 15.0012V6.56372" stroke="#2CE5A2" stroke-width="1.5" stroke-linecap="round" stroke-linejoin="round"/>
<path d="M0.900391 6.56372V14.0637C0.900391 16.5162 4.66719 18.6025 9.92319 19.3712" stroke="#2CE5A2" stroke-width="1.5" stroke-linecap="round" stroke-linejoin="round"/>
<path d="M0.900391 14.0637V21.5637C0.900391 24.22 5.32119 26.4462 11.2648 27.0362" stroke="#2CE5A2" stroke-width="1.5" stroke-linecap="round" stroke-linejoin="round"/>
<path fill-rule="evenodd" clip-rule="evenodd" d="M21.5476 14.6876L23.4004 19.7751H26.9932C27.3652 19.7599 27.7063 19.9896 27.8457 20.3492C27.985 20.7087 27.8927 21.1207 27.6148 21.3788L24.4948 23.5613L26.2228 27.7026C26.3792 28.0911 26.28 28.5402 25.9764 28.8186C25.6728 29.0969 25.2325 29.1423 24.8824 28.9313L20.7004 26.4801L16.5244 28.9313C16.1743 29.1423 15.7341 29.0969 15.4305 28.8186C15.1268 28.5402 15.0277 28.0911 15.184 27.7026L16.912 23.5613L13.792 21.3788C13.5135 21.1219 13.42 20.7105 13.5583 20.3507C13.6967 19.991 14.0371 19.7606 14.4088 19.7751H18.0088L19.858 14.6876C20.0222 14.3597 20.3478 14.1541 20.7028 14.1541C21.0579 14.1541 21.3834 14.3597 21.5476 14.6876V14.6876Z" stroke="#2CE5A2" stroke-width="1.5" stroke-linecap="round" stroke-linejoin="round"/>
</svg>
