<svg width="30" height="30" viewBox="0 0 30 30" fill="none" xmlns="http://www.w3.org/2000/svg">
<path d="M21.5625 27.1875V17.8125C21.5625 16.777 20.723 15.9375 19.6875 15.9375H10.3125C9.27697 15.9375 8.4375 16.777 8.4375 17.8125V25.3125C8.4375 26.348 9.27697 27.1875 10.3125 27.1875H12.1875" stroke="#5962EC" stroke-width="1.5" stroke-linecap="round" stroke-linejoin="round"/>
<path d="M21.5625 17.8125H25.3125C27.3836 17.8125 29.0625 19.4914 29.0625 21.5625V27.1875H25.3125" stroke="#5962EC" stroke-width="1.5" stroke-linecap="round" stroke-linejoin="round"/>
<path fill-rule="evenodd" clip-rule="evenodd" d="M14.0625 29.0625C15.098 29.0625 15.9375 28.223 15.9375 27.1875C15.9375 26.152 15.098 25.3125 14.0625 25.3125C13.027 25.3125 12.1875 26.152 12.1875 27.1875C12.1875 28.223 13.027 29.0625 14.0625 29.0625Z" stroke="#5962EC" stroke-width="1.5" stroke-linecap="round" stroke-linejoin="round"/>
<path fill-rule="evenodd" clip-rule="evenodd" d="M23.4375 29.0625C24.473 29.0625 25.3125 28.223 25.3125 27.1875C25.3125 26.152 24.473 25.3125 23.4375 25.3125C22.402 25.3125 21.5625 26.152 21.5625 27.1875C21.5625 28.223 22.402 29.0625 23.4375 29.0625Z" stroke="#5962EC" stroke-width="1.5" stroke-linecap="round" stroke-linejoin="round"/>
<path d="M15.9375 27.1875H21.5625" stroke="#5962EC" stroke-width="1.5" stroke-linecap="round" stroke-linejoin="round"/>
<path d="M4.6875 23.4375H2.8125C1.77697 23.4375 0.9375 22.598 0.9375 21.5625V8.4375C0.9375 7.40197 1.77697 6.5625 2.8125 6.5625H21.5625C22.598 6.5625 23.4375 7.40197 23.4375 8.4375V12.1875" stroke="#5962EC" stroke-width="1.5" stroke-linecap="round" stroke-linejoin="round"/>
<path d="M22.833 7.05875L19.3067 1.7725C18.9597 1.25199 18.376 0.938797 17.7505 0.9375H6.62547C5.99858 0.937546 5.41318 1.25088 5.06547 1.7725L1.54297 7.05875" stroke="#5962EC" stroke-width="1.5" stroke-linecap="round" stroke-linejoin="round"/>
<path d="M12.1875 0.9375V6.5625" stroke="#5962EC" stroke-width="1.5" stroke-linecap="round" stroke-linejoin="round"/>
</svg>
