<svg width="30" height="30" viewBox="0 0 30 30" fill="none" xmlns="http://www.w3.org/2000/svg">
<path fill-rule="evenodd" clip-rule="evenodd" d="M9.375 10.7999C12.2227 10.7999 14.5312 8.58371 14.5312 5.8499C14.5312 3.11609 12.2227 0.899902 9.375 0.899902C6.52728 0.899902 4.21875 3.11609 4.21875 5.8499C4.21875 8.58371 6.52728 10.7999 9.375 10.7999Z" stroke="#639ED4" stroke-width="1.5" stroke-linecap="round" stroke-linejoin="round"/>
<path d="M0.9375 20.6999C0.9375 16.2263 4.7151 12.5999 9.375 12.5999C9.6882 12.5999 10.0012 12.6163 10.3125 12.6491" stroke="#639ED4" stroke-width="1.5" stroke-linecap="round" stroke-linejoin="round"/>
<path fill-rule="evenodd" clip-rule="evenodd" d="M14.0625 15C14.0625 14.1716 14.7341 13.5 15.5625 13.5H27.5625C28.3909 13.5 29.0625 14.1716 29.0625 15V22.8C29.0625 23.6284 28.3909 24.3 27.5625 24.3H15.5625C14.7341 24.3 14.0625 23.6284 14.0625 22.8V15Z" stroke="#639ED4" stroke-width="1.5" stroke-linecap="round" stroke-linejoin="round"/>
<path d="M17.8125 27.8999H25.3125" stroke="#639ED4" stroke-width="1.5" stroke-linecap="round" stroke-linejoin="round"/>
<path d="M21.5625 27.8998V24.2998" stroke="#639ED4" stroke-width="1.5" stroke-linecap="round" stroke-linejoin="round"/>
</svg>
