<svg width="30" height="30" viewBox="0 0 30 30" fill="none" xmlns="http://www.w3.org/2000/svg">
<path fill-rule="evenodd" clip-rule="evenodd" d="M13.125 15.6573C13.1264 16.332 12.5809 16.8803 11.9063 16.8823H2.15626C1.83214 16.8817 1.52159 16.7522 1.29299 16.5224C1.06439 16.2927 0.93651 15.9814 0.937506 15.6573V2.16982C0.936842 1.8456 1.065 1.53439 1.2938 1.30465C1.52259 1.07492 1.83328 0.945487 2.15751 0.944824L11.9075 0.961074C12.5817 0.96383 13.1264 1.51188 13.125 2.18607V15.6573Z" stroke="#DB5A89" stroke-width="1.5" stroke-linecap="round" stroke-linejoin="round"/>
<path fill-rule="evenodd" clip-rule="evenodd" d="M29.0576 8.17986C29.0528 8.84833 28.5073 9.38651 27.8389 9.38236H18.0889C17.7677 9.38469 17.4589 9.25926 17.2303 9.03371C17.0017 8.80816 16.8721 8.50099 16.8701 8.17986V2.16361C16.8742 1.49583 17.4186 0.957645 18.0864 0.961107L27.8364 0.944857C28.5055 0.940005 29.0521 1.47819 29.0576 2.14736V8.17986Z" stroke="#DB5A89" stroke-width="1.5" stroke-linecap="round" stroke-linejoin="round"/>
<path fill-rule="evenodd" clip-rule="evenodd" d="M13.125 27.8636C13.123 28.1855 12.9932 28.4934 12.7642 28.7197C12.5352 28.9459 12.2257 29.0718 11.9037 29.0698L2.15375 29.0536C1.48528 29.0564 0.940944 28.5171 0.9375 27.8486V21.8373C0.939153 21.5159 1.06853 21.2083 1.29712 20.9822C1.52572 20.7562 1.83479 20.6304 2.15625 20.6323H11.9062C12.5754 20.6289 13.1209 21.1682 13.125 21.8373V27.8636Z" stroke="#DB5A89" stroke-width="1.5" stroke-linecap="round" stroke-linejoin="round"/>
<path fill-rule="evenodd" clip-rule="evenodd" d="M18.0901 29.0698C17.7657 29.0692 17.4548 28.9396 17.226 28.7096C16.9971 28.4796 16.8691 28.168 16.8701 27.8436V14.3586C16.8691 14.0343 16.997 13.723 17.2255 13.493C17.4541 13.2631 17.7646 13.1333 18.0889 13.1323H27.8389C28.1631 13.1333 28.4737 13.2631 28.7022 13.493C28.9308 13.723 29.0586 14.0343 29.0576 14.3586V27.8273C29.059 28.5017 28.5145 29.0501 27.8401 29.0536L18.0901 29.0698Z" stroke="#DB5A89" stroke-width="1.5" stroke-linecap="round" stroke-linejoin="round"/>
</svg>
