<svg width="30" height="31" viewBox="0 0 30 31" fill="none" xmlns="http://www.w3.org/2000/svg">
<path fill-rule="evenodd" clip-rule="evenodd" d="M16.0846 18.4543L19.2658 15.273L21.4558 15.8605C22.1333 16.0412 22.8558 15.8472 23.3517 15.3514C23.8475 14.8555 24.0415 14.1331 23.8608 13.4555L23.2733 11.2655L24.2533 10.2855L26.4433 10.873C27.121 11.0546 27.844 10.8608 28.34 10.3648C28.8361 9.86869 29.0298 9.14568 28.8483 8.46804L28.2621 6.27804C29.4122 5.12756 29.4119 3.26255 28.2614 2.11242C27.111 0.962284 25.246 0.962564 24.0958 2.11304L11.9196 14.2893C8.45869 12.8219 4.44332 14.0127 2.34191 17.1296C0.240498 20.2464 0.642355 24.4153 3.30044 27.0734C5.95852 29.7315 10.1274 30.1334 13.2443 28.0319C16.3612 25.9305 17.5519 21.9152 16.0846 18.4543Z" stroke="#639ED4" stroke-width="1.5" stroke-linecap="round" stroke-linejoin="round"/>
<path fill-rule="evenodd" clip-rule="evenodd" d="M7.46424 24.8724C8.54879 24.8724 9.42799 23.9932 9.42799 22.9087C9.42799 21.8241 8.54879 20.9449 7.46424 20.9449C6.37969 20.9449 5.50049 21.8241 5.50049 22.9087C5.50049 23.9932 6.37969 24.8724 7.46424 24.8724Z" stroke="#639ED4" stroke-width="1.5" stroke-linecap="round" stroke-linejoin="round"/>
</svg>
