<svg width="30" height="28" viewBox="0 0 30 28" fill="none" xmlns="http://www.w3.org/2000/svg">
<path d="M14.0625 27.125C6.81376 27.125 0.9375 21.2487 0.9375 14C0.9375 6.75126 6.81376 0.875 14.0625 0.875" stroke="#EE8667" stroke-width="1.5" stroke-linecap="round" stroke-linejoin="round"/>
<path d="M14.0625 0.875C14.0625 0.875 7.5 4.625 7.5 14C7.5 23.375 14.0625 27.125 14.0625 27.125" stroke="#EE8667" stroke-width="1.5" stroke-linecap="round" stroke-linejoin="round"/>
<path d="M14.0624 8.375H2.20117" stroke="#EE8667" stroke-width="1.5" stroke-linecap="round" stroke-linejoin="round"/>
<path d="M14.0624 19.625H2.20117" stroke="#EE8667" stroke-width="1.5" stroke-linecap="round" stroke-linejoin="round"/>
<path fill-rule="evenodd" clip-rule="evenodd" d="M23.4375 8.375C25.5086 8.375 27.1875 6.69607 27.1875 4.625C27.1875 2.55393 25.5086 0.875 23.4375 0.875C21.3664 0.875 19.6875 2.55393 19.6875 4.625C19.6875 6.69607 21.3664 8.375 23.4375 8.375Z" stroke="#EE8667" stroke-width="1.5" stroke-linecap="round" stroke-linejoin="round"/>
<path fill-rule="evenodd" clip-rule="evenodd" d="M26.7 11.3076L23.4375 15.8751L20.175 11.3076C18.6947 12.358 17.8143 14.06 17.8125 15.8751V19.6251C17.8125 20.6607 18.652 21.5001 19.6875 21.5001H20.625V25.2501C20.625 26.2857 21.4645 27.1251 22.5 27.1251H24.375C25.4105 27.1251 26.25 26.2857 26.25 25.2501V21.5001H27.1875C28.223 21.5001 29.0625 20.6607 29.0625 19.6251V15.8751C29.0607 14.06 28.1803 12.358 26.7 11.3076Z" stroke="#EE8667" stroke-width="1.5" stroke-linecap="round" stroke-linejoin="round"/>
</svg>
