<svg width="24" height="25" viewBox="0 0 24 25" fill="none" xmlns="http://www.w3.org/2000/svg">
<path fill-rule="evenodd" clip-rule="evenodd" d="M5.25 9.755C7.73528 9.755 9.75 7.74029 9.75 5.255C9.75 2.76972 7.73528 0.755005 5.25 0.755005C2.76472 0.755005 0.75 2.76972 0.75 5.255C0.75 7.74029 2.76472 9.755 5.25 9.755Z" stroke="#2CE5A2" stroke-width="1.5" stroke-linecap="round" stroke-linejoin="round"/>
<path fill-rule="evenodd" clip-rule="evenodd" d="M5.25 23.255C7.73528 23.255 9.75 21.2403 9.75 18.755C9.75 16.2697 7.73528 14.255 5.25 14.255C2.76472 14.255 0.75 16.2697 0.75 18.755C0.75 21.2403 2.76472 23.255 5.25 23.255Z" stroke="#2CE5A2" stroke-width="1.5" stroke-linecap="round" stroke-linejoin="round"/>
<path fill-rule="evenodd" clip-rule="evenodd" d="M18.75 9.755C21.2353 9.755 23.25 7.74029 23.25 5.255C23.25 2.76972 21.2353 0.755005 18.75 0.755005C16.2647 0.755005 14.25 2.76972 14.25 5.255C14.25 7.74029 16.2647 9.755 18.75 9.755Z" stroke="#2CE5A2" stroke-width="1.5" stroke-linecap="round" stroke-linejoin="round"/>
<path fill-rule="evenodd" clip-rule="evenodd" d="M18.75 23.255C21.2353 23.255 23.25 21.2403 23.25 18.755C23.25 16.2697 21.2353 14.255 18.75 14.255C16.2647 14.255 14.25 16.2697 14.25 18.755C14.25 21.2403 16.2647 23.255 18.75 23.255Z" stroke="#2CE5A2" stroke-width="1.5" stroke-linecap="round" stroke-linejoin="round"/>
</svg>
