<svg width="29" height="32" viewBox="0 0 29 32" fill="none" xmlns="http://www.w3.org/2000/svg">
<path d="M28 31L24 25V18C24 15.3333 18.9333 12.4813 17 11" stroke="#E56ECA" stroke-width="1.5" stroke-linecap="round" stroke-linejoin="round"/>
<path d="M19.5735 19.7254L14.7095 15.8267C14.2705 15.3878 13.6307 15.2163 13.0311 15.377C12.4314 15.5377 11.9631 16.006 11.8024 16.6057C11.6417 17.2053 11.8132 17.8451 12.2521 18.2841L16.9641 23.6001V26.9334C16.9641 28.5081 19.2135 30.9934 19.2135 30.9934" stroke="#E56ECA" stroke-width="1.5" stroke-linecap="round" stroke-linejoin="round"/>
<path d="M16.9867 27.232C16.8689 28.24 16.0149 29.0001 15 29H3C1.89543 29 1 28.1046 1 27V3C1 1.89543 1.89543 1 3 1H15C16.1046 1 17 1.89543 17 3V17.6667" stroke="#E56ECA" stroke-width="1.5" stroke-linecap="round" stroke-linejoin="round"/>
<path d="M9.00002 19C7.16261 18.9976 5.56316 17.7438 5.12217 15.9601C4.68119 14.1764 5.51211 12.3216 7.13672 11.4633C8.76133 10.605 10.7617 10.9639 11.9867 12.3334" stroke="#E56ECA" stroke-width="1.5" stroke-linecap="round" stroke-linejoin="round"/>
<path d="M4.5 4C4.77614 4 5 4.22386 5 4.5C5 4.77614 4.77614 5 4.5 5C4.22386 5 4 4.77614 4 4.5C4 4.22386 4.22386 4 4.5 4" stroke="#E56ECA" stroke-width="1.5" stroke-linecap="round" stroke-linejoin="round"/>
<path d="M13.5 25C13.7761 25 14 25.2239 14 25.5C14 25.7761 13.7761 26 13.5 26C13.2239 26 13 25.7761 13 25.5C13 25.2239 13.2239 25 13.5 25" stroke="#E56ECA" stroke-width="1.5" stroke-linecap="round" stroke-linejoin="round"/>
</svg>
