<svg width="30" height="30" viewBox="0 0 30 30" fill="none" xmlns="http://www.w3.org/2000/svg">
<path fill-rule="evenodd" clip-rule="evenodd" d="M20.0399 11.1772H9.95865C9.40781 11.1996 8.96411 11.6368 8.93365 12.1872L7.41115 23.1247C7.36717 23.4293 7.45335 23.7383 7.6486 23.9761C7.84384 24.2139 8.13013 24.3586 8.4374 24.3747H21.5624C21.8697 24.3586 22.156 24.2139 22.3512 23.9761C22.5465 23.7383 22.6326 23.4293 22.5886 23.1247L21.0662 12.1872C21.0356 11.6363 20.5912 11.199 20.0399 11.1772Z" stroke="#E56ECA" stroke-width="1.5" stroke-linecap="round" stroke-linejoin="round"/>
<path fill-rule="evenodd" clip-rule="evenodd" d="M0.9375 2.9375C0.9375 1.83293 1.83293 0.9375 2.9375 0.9375H27.0625C28.1671 0.9375 29.0625 1.83293 29.0625 2.9375V27.0625C29.0625 28.1671 28.1671 29.0625 27.0625 29.0625H2.9375C1.83293 29.0625 0.9375 28.1671 0.9375 27.0625V2.9375Z" stroke="#E56ECA" stroke-width="1.5" stroke-linecap="round" stroke-linejoin="round"/>
<path fill-rule="evenodd" clip-rule="evenodd" d="M18.75 11.1772H11.25V9.30225C11.25 7.23118 12.9289 5.55225 15 5.55225C17.0711 5.55225 18.75 7.23118 18.75 9.30225V11.1772Z" stroke="#E56ECA" stroke-width="1.5" stroke-linecap="round" stroke-linejoin="round"/>
</svg>
