<svg width="26" height="30" viewBox="0 0 26 30" fill="none" xmlns="http://www.w3.org/2000/svg">
<path fill-rule="evenodd" clip-rule="evenodd" d="M0.812542 4.9037V14.4212C0.812594 20.5793 4.60502 26.1015 10.3525 28.3124L11.6538 28.8124C12.5203 29.1458 13.4797 29.1458 14.3463 28.8124L15.6475 28.3124C21.3951 26.1015 25.1875 20.5793 25.1875 14.4212V4.9037C25.1924 4.17212 24.7677 3.50572 24.1025 3.2012C20.6023 1.67343 16.819 0.902021 13 0.937446C9.18111 0.902021 5.39774 1.67343 1.89754 3.2012C1.23235 3.50572 0.807648 4.17212 0.812542 4.9037Z" stroke="#E56ECA" stroke-width="1.5" stroke-linecap="round" stroke-linejoin="round"/>
<path d="M11.1816 16.1563C11.3156 16.0221 11.5172 15.9819 11.6925 16.0544C11.8677 16.127 11.982 16.2979 11.982 16.4876C11.982 16.6772 11.8677 16.8482 11.6925 16.9207C11.5172 16.9932 11.3156 16.953 11.1816 16.8188C11.0935 16.7311 11.0439 16.6119 11.0439 16.4876C11.0439 16.3632 11.0935 16.244 11.1816 16.1563" stroke="#E56ECA" stroke-width="1.5" stroke-linecap="round" stroke-linejoin="round"/>
<path fill-rule="evenodd" clip-rule="evenodd" d="M16.2334 14.6374L20.8422 10.0274C21.3558 9.51379 21.5563 8.76525 21.3683 8.0637C21.1804 7.36215 20.6324 6.81418 19.9308 6.6262C19.2293 6.43822 18.4808 6.63879 17.9672 7.15236L13.3622 11.7661C11.125 10.89 8.58002 11.7027 7.26469 13.7133C5.94936 15.7239 6.22414 18.3813 7.92305 20.0803C9.62195 21.7792 12.2794 22.0539 14.29 20.7386C16.3006 19.4233 17.1133 16.8783 16.2372 14.6411L16.2334 14.6374Z" stroke="#E56ECA" stroke-width="1.5" stroke-linecap="round" stroke-linejoin="round"/>
</svg>
