<svg width="30" height="26" viewBox="0 0 30 26" fill="none" xmlns="http://www.w3.org/2000/svg">
<path d="M22.5 25.1875H27.1875C28.223 25.1875 29.0625 24.348 29.0625 23.3125V2.83125C29.0591 1.71726 28.1565 0.815245 27.0425 0.8125H2.94625C1.83827 0.815931 0.940931 1.71327 0.9375 2.82125V23.1675C0.940245 24.2815 1.84226 25.1841 2.95625 25.1875H7.5" stroke="#5962EC" stroke-width="1.5" stroke-linecap="round" stroke-linejoin="round"/>
<path d="M0.9375 6.4375H29.0625" stroke="#5962EC" stroke-width="1.5" stroke-linecap="round" stroke-linejoin="round"/>
<path d="M21.5625 11.125L18.75 20.5H11.25L9.375 14.875H20.4375" stroke="#5962EC" stroke-width="1.5" stroke-linecap="round" stroke-linejoin="round"/>
<path d="M11.7188 23.3125C11.9776 23.3125 12.1875 23.5224 12.1875 23.7812C12.1875 24.0401 11.9776 24.25 11.7188 24.25C11.4599 24.25 11.25 24.0401 11.25 23.7812C11.25 23.5224 11.4599 23.3125 11.7188 23.3125" stroke="#5962EC" stroke-width="1.5" stroke-linecap="round" stroke-linejoin="round"/>
<path d="M18.2812 23.3125C18.5401 23.3125 18.75 23.5224 18.75 23.7812C18.75 24.0401 18.5401 24.25 18.2812 24.25C18.0224 24.25 17.8125 24.0401 17.8125 23.7812C17.8125 23.5224 18.0224 23.3125 18.2812 23.3125" stroke="#5962EC" stroke-width="1.5" stroke-linecap="round" stroke-linejoin="round"/>
</svg>
