<svg width="30" height="30" viewBox="0 0 30 30" fill="none" xmlns="http://www.w3.org/2000/svg">
<path fill-rule="evenodd" clip-rule="evenodd" d="M5.62402 25.3125C7.43621 25.3125 8.90527 23.8434 8.90527 22.0312C8.90527 20.2191 7.43621 18.75 5.62402 18.75C3.81184 18.75 2.34277 20.2191 2.34277 22.0312C2.34277 23.8434 3.81184 25.3125 5.62402 25.3125Z" stroke="#E56ECA" stroke-width="1.5" stroke-linecap="round" stroke-linejoin="round"/>
<path d="M10.3115 29.0625C9.38824 27.3314 7.58599 26.25 5.62402 26.25C3.66205 26.25 1.8598 27.3314 0.936523 29.0625" stroke="#E56ECA" stroke-width="1.5" stroke-linecap="round" stroke-linejoin="round"/>
<path fill-rule="evenodd" clip-rule="evenodd" d="M24.374 25.3125C26.1862 25.3125 27.6553 23.8434 27.6553 22.0312C27.6553 20.2191 26.1862 18.75 24.374 18.75C22.5618 18.75 21.0928 20.2191 21.0928 22.0312C21.0928 23.8434 22.5618 25.3125 24.374 25.3125Z" stroke="#E56ECA" stroke-width="1.5" stroke-linecap="round" stroke-linejoin="round"/>
<path d="M29.0615 29.0625C28.1382 27.3314 26.336 26.25 24.374 26.25C22.4121 26.25 20.6098 27.3314 19.6865 29.0625" stroke="#E56ECA" stroke-width="1.5" stroke-linecap="round" stroke-linejoin="round"/>
<path fill-rule="evenodd" clip-rule="evenodd" d="M14.999 7.5C16.8112 7.5 18.2803 6.03093 18.2803 4.21875C18.2803 2.40657 16.8112 0.9375 14.999 0.9375C13.1868 0.9375 11.7178 2.40657 11.7178 4.21875C11.7178 6.03093 13.1868 7.5 14.999 7.5Z" stroke="#E56ECA" stroke-width="1.5" stroke-linecap="round" stroke-linejoin="round"/>
<path d="M19.0605 10.3125C18.0467 9.12211 16.5617 8.43628 14.998 8.43628C13.4344 8.43628 11.9494 9.12211 10.9355 10.3125" stroke="#E56ECA" stroke-width="1.5" stroke-linecap="round" stroke-linejoin="round"/>
<path d="M11.3125 24.6338C13.7065 25.5466 16.3541 25.5385 18.7425 24.6113" stroke="#E56ECA" stroke-width="1.5" stroke-linecap="round" stroke-linejoin="round"/>
<path d="M7.93555 7.5C5.86127 9.44272 4.68464 12.158 4.68555 15C4.68555 15.3162 4.7043 15.625 4.73305 15.9375" stroke="#E56ECA" stroke-width="1.5" stroke-linecap="round" stroke-linejoin="round"/>
<path d="M25.264 15.9375C25.2915 15.6275 25.3115 15.3125 25.3115 15C25.3129 12.1579 24.1362 9.44245 22.0615 7.5" stroke="#E56ECA" stroke-width="1.5" stroke-linecap="round" stroke-linejoin="round"/>
</svg>
