<?xml version="1.0" standalone="no"?>
<!DOCTYPE svg PUBLIC "-//W3C//DTD SVG 20010904//EN"
 "http://www.w3.org/TR/2001/REC-SVG-20010904/DTD/svg10.dtd">
<svg version="1.0" xmlns="http://www.w3.org/2000/svg"
 width="1667.000000pt" height="1667.000000pt" viewBox="0 0 1667.000000 1667.000000"
 preserveAspectRatio="xMidYMid meet">
<metadata>
Created by potrace 1.11, written by Peter Selinger 2001-2013
</metadata>
<g transform="translate(0.000000,1667.000000) scale(0.100000,-0.100000)"
fill="#000000" stroke="none">
<path d="M3680 16654 c-92 -18 -99 -20 -160 -42 -91 -33 -145 -58 -217 -104
-474 -299 -641 -897 -388 -1397 76 -152 83 -159 796 -871 802 -799 813 -810
1145 -1110 113 -103 378 -324 509 -426 646 -503 1206 -821 1802 -1024 67 -22
130 -43 140 -45 10 -2 52 -13 93 -24 174 -47 412 -92 560 -106 36 -3 91 -8
123 -11 31 -3 146 -6 255 -6 178 0 257 4 362 17 19 2 60 7 90 10 47 6 150 22
255 41 150 27 542 145 680 204 11 5 54 23 95 40 41 17 91 39 110 47 58 26 342
168 385 193 22 13 49 28 60 34 459 251 1036 684 1610 1211 333 305 1619 1591
1687 1685 95 135 163 295 183 436 3 21 8 46 11 54 9 26 5 237 -6 307 -52 329
-259 617 -562 781 -247 134 -598 156 -868 55 -102 -39 -209 -98 -285 -158 -39
-31 -385 -370 -770 -753 -681 -678 -749 -745 -924 -902 -46 -41 -89 -80 -96
-87 -22 -21 -105 -91 -275 -233 -155 -129 -629 -470 -654 -470 -2 0 -33 -18
-68 -39 -257 -156 -551 -269 -823 -317 -60 -10 -322 -12 -380 -2 -27 5 -66 11
-85 14 -41 5 -161 37 -245 65 -64 22 -75 26 -147 58 -26 12 -50 21 -54 21 -9
0 -203 99 -289 148 -157 89 -479 308 -611 415 -276 223 -316 258 -518 441
-193 175 -216 197 -941 918 -694 691 -729 724 -820 782 -100 65 -270 132 -380
151 -79 13 -319 13 -385 -1z"/>
<path d="M997 13874 c-1 -1 -29 -5 -62 -8 -324 -36 -652 -261 -808 -556 -136
-259 -163 -565 -75 -840 39 -121 125 -275 208 -370 11 -14 335 -340 719 -725
383 -385 740 -747 791 -804 52 -57 109 -118 125 -136 63 -68 98 -109 230 -265
74 -89 163 -198 197 -243 34 -45 66 -86 71 -92 4 -5 28 -39 54 -74 258 -361
428 -677 517 -963 29 -94 29 -94 53 -213 23 -115 22 -437 -1 -506 -3 -8 -7
-27 -10 -44 -21 -129 -97 -336 -197 -535 -211 -421 -558 -884 -1078 -1440 -69
-74 -423 -432 -785 -795 -363 -363 -685 -692 -716 -731 -31 -39 -73 -100 -93
-136 -35 -63 -100 -218 -91 -218 3 0 0 -8 -5 -19 -10 -18 -14 -37 -31 -136
-15 -88 -4 -311 19 -404 94 -373 364 -661 726 -774 113 -35 169 -42 340 -41
130 0 163 4 249 27 123 34 244 90 344 160 53 38 286 264 742 719 654 653 749
749 942 958 137 148 135 146 234 261 49 57 99 115 112 129 54 58 337 415 427
539 54 74 146 206 205 295 93 140 128 196 224 359 92 157 221 417 301 607 48
115 160 431 170 480 2 8 14 58 28 110 34 127 45 186 71 350 30 188 38 305 39
520 1 147 -10 397 -18 410 -1 3 -6 32 -9 65 -4 33 -9 67 -11 75 -2 8 -6 36
-10 62 -16 130 -87 405 -162 623 -90 264 -278 665 -418 897 -30 49 -55 91 -55
94 0 11 -342 520 -359 534 -4 3 -38 48 -76 100 -38 52 -72 97 -75 100 -3 3
-41 50 -85 105 -44 55 -87 109 -96 120 -45 53 -143 168 -209 245 -31 35 -166
185 -230 254 -36 39 -87 95 -115 125 -27 30 -376 382 -775 782 -762 764 -789
788 -948 861 -146 66 -287 98 -450 102 -45 1 -84 1 -85 0z"/>
<path d="M15537 13874 c-1 -1 -31 -4 -67 -8 -149 -14 -325 -78 -467 -171 -75
-49 -196 -166 -798 -769 -749 -749 -829 -832 -1060 -1090 -814 -912 -1317
-1752 -1536 -2565 -17 -62 -33 -123 -35 -135 -2 -11 -6 -31 -9 -43 -12 -55
-15 -71 -25 -123 -14 -80 -17 -99 -36 -240 -31 -232 -20 -704 21 -930 2 -14 6
-41 9 -60 12 -81 48 -244 76 -340 12 -41 28 -97 35 -125 32 -113 106 -316 164
-447 12 -26 21 -50 21 -52 0 -10 131 -276 190 -386 106 -196 331 -560 352
-568 4 -2 8 -8 8 -13 0 -8 156 -231 191 -273 5 -6 33 -42 62 -81 28 -38 54
-72 57 -75 3 -3 32 -39 65 -80 60 -76 254 -311 265 -320 3 -3 41 -45 84 -95
234 -267 376 -412 1160 -1197 518 -517 665 -660 731 -703 84 -56 221 -125 249
-125 8 0 17 -4 20 -9 3 -4 20 -11 38 -15 149 -29 197 -34 298 -34 98 -1 168 8
273 34 9 2 25 6 35 8 63 15 217 88 292 139 194 133 344 333 416 555 41 124 53
214 49 367 -4 145 -21 240 -65 350 -29 75 -87 182 -130 241 -28 39 -363 383
-768 789 -395 396 -758 764 -807 819 -50 54 -95 104 -101 110 -17 18 -115 129
-143 161 -297 345 -386 464 -658 876 -12 19 -23 38 -23 42 0 4 -11 24 -24 45
-38 60 -129 240 -165 327 -112 266 -152 460 -146 700 5 195 16 260 75 450 89
282 307 679 551 999 24 32 49 66 54 75 6 8 17 23 25 31 8 8 37 44 65 80 60 79
60 78 176 215 52 61 103 121 114 134 11 13 27 31 36 40 8 9 64 70 124 136 60
66 432 444 826 840 394 396 730 736 746 755 112 133 206 341 232 514 25 171
-1 416 -58 551 -42 97 -93 189 -141 253 -171 231 -444 393 -720 428 -52 6
-198 12 -203 8z"/>
<path d="M8168 5185 c-2 -1 -50 -5 -108 -9 -58 -3 -114 -8 -125 -10 -11 -2
-45 -7 -76 -10 -55 -6 -75 -10 -129 -21 -14 -3 -43 -7 -65 -11 -22 -3 -58 -10
-80 -16 -22 -5 -51 -12 -65 -14 -57 -10 -225 -59 -375 -109 -417 -139 -815
-341 -1265 -641 -239 -159 -325 -222 -553 -404 -181 -144 -154 -122 -293 -240
-327 -280 -478 -424 -1281 -1225 -615 -614 -730 -733 -776 -805 -161 -249
-210 -490 -162 -795 2 -17 16 -73 30 -125 9 -34 59 -149 88 -200 100 -180 271
-342 463 -438 57 -29 163 -68 209 -78 97 -21 134 -26 230 -29 191 -5 358 30
518 111 141 72 194 120 902 825 385 383 721 716 746 740 735 693 1313 1096
1814 1267 84 28 195 60 240 68 11 2 34 6 50 10 17 3 107 8 200 10 136 3 190 0
272 -15 102 -19 261 -62 318 -86 17 -7 50 -20 75 -30 180 -73 370 -176 590
-320 128 -84 382 -269 470 -342 12 -10 31 -25 41 -35 11 -9 39 -31 62 -50 37
-29 265 -226 293 -253 6 -5 58 -53 115 -105 57 -52 424 -412 814 -801 391
-389 733 -727 761 -751 75 -66 168 -120 314 -181 143 -61 414 -81 587 -43 111
24 232 68 298 109 11 7 43 26 71 44 72 44 88 57 179 149 209 210 313 472 308
777 -4 224 -90 462 -234 642 -54 68 -1378 1390 -1569 1566 -583 539 -1001 866
-1510 1181 -382 236 -871 457 -1224 554 -81 22 -256 64 -311 75 -50 9 -60 11
-145 24 -25 4 -52 9 -60 10 -8 2 -44 6 -80 9 -36 4 -83 9 -105 12 -40 6 -461
14 -467 9z"/>
</g>
</svg>
